<mxfile host="app.diagrams.net" modified="2023-08-22T01:56:38.146Z" agent="Mozilla/5.0 (X11; Linux x86_64) AppleWebKit/537.36 (KHTML, like Gecko) Chrome/109.0.0.0 Safari/537.36" version="21.6.8" etag="j4rQDy0mfffJHU9CqhKE" type="github">
  <diagram name="Page-1" id="Tuj4JF5LzvKoRqn83C5Q">
    <mxGraphModel>
      <root>
        <mxCell id="0" />
        <mxCell id="1" parent="0" />
      </root>
    </mxGraphModel>
  </diagram>
</mxfile>
